<svg xmlns="http://www.w3.org/2000/svg" viewBox="0 0 900 400"><defs><style>.cls-1{fill:#3f3d56;}.cls-2{fill:#6c63ff;}.cls-3{fill:#f2f2f2;}.cls-4{fill:#ff6584;}.cls-5{fill:#ccc;}.cls-6{opacity:0.1;isolation:isolate;}.cls-7{fill:#2f2e41;}.cls-8{fill:#ffb8b8;}.cls-9{fill:#575a88;}.cls-10{fill:#8985a8;}.cls-11{fill:#a0616a;}.cls-12{fill:none;}</style></defs><title>Asset 2</title><g id="Layer_2" data-name="Layer 2"><g id="b41107ec-0743-407f-ab78-90e6ac5363b5"><path class="cls-1" d="M250.81,263.52c4,7.58,12.56,10.84,12.56,10.84s2-9-2-16.62S248.8,246.9,248.8,246.9,246.78,255.94,250.81,263.52Z"/><path class="cls-2" d="M253.57,261c7.26,4.44,10.06,13.26,10.06,13.26s-9,1.62-16.24-2.82-10.06-13.26-10.06-13.26S246.31,256.59,253.57,261Z"/><path class="cls-3" d="M633.75,137.74c0,60.62-35.46,81.79-79.2,81.79s-79.2-21.17-79.2-81.79S554.55,0,554.55,0,633.75,77.12,633.75,137.74Z"/><polygon class="cls-1" points="551.66 210.25 552.47 159.52 586.23 96.75 552.6 151.56 552.97 128.75 576.23 83.34 553.06 122.71 553.06 122.71 553.72 81.68 578.63 45.53 553.82 75.23 554.23 0 551.66 99.59 551.87 95.48 526.54 56.08 551.46 103.37 549.1 149.19 549.03 147.98 519.83 106.51 548.94 152.27 548.65 158 548.6 158.09 548.62 158.56 542.63 274.81 550.63 274.81 551.59 214.77 580.63 169.12 551.66 210.25"/><path class="cls-3" d="M855.18,137.74c0,60.62-35.45,81.79-79.19,81.79s-79.2-21.17-79.2-81.79S776,0,776,0,855.18,77.12,855.18,137.74Z"/><polygon class="cls-1" points="773.1 210.25 773.91 159.52 807.67 96.75 774.04 151.56 774.4 128.75 797.67 83.34 774.5 122.71 774.5 122.71 775.16 81.68 800.07 45.53 775.26 75.23 775.67 0 773.09 99.59 773.3 95.48 747.98 56.08 772.9 103.37 770.54 149.19 770.47 147.98 741.27 106.51 770.38 152.27 770.09 158 770.03 158.09 770.06 158.56 764.07 274.81 772.07 274.81 773.03 214.77 802.07 169.12 773.1 210.25"/><ellipse class="cls-4" cx="298.25" cy="155.6" rx="30.3" ry="30.79"/><polygon class="cls-1" points="259.81 213.51 255.36 205.98 296.87 169.82 403.61 169.82 403.61 180.37 365.06 222.55 320.59 231.59 259.81 213.51"/><polygon class="cls-5" points="421.98 191.04 421.98 167.47 408 167.47 408 174.9 403.61 169.82 368.03 205.98 362.1 212 354.69 242.14 368.03 275.28 436.22 275.28 436.22 207.49 421.98 191.04"/><rect class="cls-3" x="255.36" y="205.98" width="112.66" height="69.31"/><rect class="cls-1" x="328.74" y="227.82" width="23.72" height="21.09"/><rect class="cls-5" x="298.35" y="227.07" width="20.75" height="48.21"/><polygon class="cls-1" points="274.63 234.6 274.63 227.07 265.74 227.07 265.74 234.6 273.89 234.6 274.63 234.6"/><polygon class="cls-1" points="273.89 240.63 265.74 240.63 265.74 248.16 274.63 248.16 274.63 240.63 273.89 240.63"/><rect class="cls-1" x="280.57" y="227.07" width="8.89" height="7.53"/><rect class="cls-1" x="280.57" y="240.63" width="8.89" height="7.53"/><polygon class="cls-1" points="399.9 235.36 399.9 227.82 391 227.82 391 235.36 399.16 235.36 399.9 235.36"/><polygon class="cls-1" points="399.16 241.38 391 241.38 391 248.92 399.9 248.92 399.9 241.38 399.16 241.38"/><rect class="cls-1" x="405.83" y="227.82" width="8.89" height="7.53"/><rect class="cls-1" x="405.83" y="241.38" width="8.89" height="7.53"/><polygon class="cls-1" points="473.72 213.47 469.28 205.94 510.79 169.78 617.52 169.78 617.52 180.32 578.98 222.51 534.5 231.55 473.72 213.47"/><polygon class="cls-5" points="635.89 191 635.89 167.43 621.92 167.43 621.92 174.86 617.52 169.78 581.94 205.94 576.01 211.96 568.6 242.1 581.94 275.24 650.13 275.24 650.13 207.44 635.89 191"/><rect class="cls-3" x="469.28" y="205.94" width="112.66" height="69.31"/><rect class="cls-1" x="542.66" y="227.78" width="23.72" height="21.09"/><rect class="cls-5" x="512.27" y="227.03" width="20.75" height="48.21"/><polygon class="cls-1" points="488.55 234.56 488.55 227.03 479.65 227.03 479.65 234.56 487.81 234.56 488.55 234.56"/><polygon class="cls-1" points="487.81 240.59 479.65 240.59 479.65 248.12 488.55 248.12 488.55 240.59 487.81 240.59"/><rect class="cls-1" x="494.48" y="227.03" width="8.89" height="7.53"/><rect class="cls-1" x="494.48" y="240.59" width="8.89" height="7.53"/><polygon class="cls-1" points="613.81 235.32 613.81 227.78 604.92 227.78 604.92 235.32 613.07 235.32 613.81 235.32"/><polygon class="cls-1" points="613.07 241.34 604.92 241.34 604.92 248.88 613.81 248.88 613.81 241.34 613.07 241.34"/><rect class="cls-1" x="619.74" y="227.78" width="8.89" height="7.53"/><rect class="cls-1" x="619.74" y="241.34" width="8.89" height="7.53"/><polygon class="cls-1" points="681.22 213.47 676.77 205.94 718.28 169.78 825.01 169.78 825.01 180.32 786.47 222.51 742 231.55 681.22 213.47"/><polygon class="cls-5" points="843.39 191 843.39 167.43 829.41 167.43 829.41 174.86 825.01 169.78 789.43 205.94 783.5 211.96 776.09 242.1 789.43 275.24 857.63 275.24 857.63 207.44 843.39 191"/><rect class="cls-3" x="676.77" y="205.94" width="112.66" height="69.31"/><polygon class="cls-1" points="42.53 212.94 38.09 205.41 79.59 169.25 186.33 169.25 186.33 179.8 147.79 221.98 103.31 231.02 42.53 212.94"/><polygon class="cls-5" points="204.7 190.47 204.7 166.9 190.73 166.9 190.73 174.33 186.33 169.25 150.75 205.41 144.82 211.44 137.41 241.57 150.75 274.72 218.94 274.72 218.94 206.92 204.7 190.47"/><rect class="cls-3" x="38.09" y="205.41" width="112.66" height="69.31"/><rect class="cls-1" x="111.47" y="227.26" width="23.72" height="21.09"/><rect class="cls-5" x="81.08" y="226.5" width="20.75" height="48.21"/><polygon class="cls-1" points="57.36 234.04 57.36 226.5 48.46 226.5 48.46 234.04 56.62 234.04 57.36 234.04"/><polygon class="cls-1" points="56.62 240.06 48.46 240.06 48.46 247.6 57.36 247.6 57.36 240.06 56.62 240.06"/><rect class="cls-1" x="63.29" y="226.5" width="8.89" height="7.53"/><rect class="cls-1" x="63.29" y="240.06" width="8.89" height="7.53"/><polygon class="cls-1" points="182.62 234.79 182.62 227.26 173.73 227.26 173.73 234.79 181.88 234.79 182.62 234.79"/><rect class="cls-1" x="188.55" y="227.26" width="8.89" height="7.53"/><rect class="cls-1" x="188.55" y="240.82" width="8.89" height="7.53"/><rect class="cls-1" x="225.92" y="229.36" width="1.12" height="44.78"/><path class="cls-2" d="M237.33,235.07c.07,15.66-10.77,28.41-10.77,28.41s-10.95-12.65-11-28.31,10.77-28.4,10.77-28.4S237.26,219.41,237.33,235.07Z"/><rect class="cls-1" x="173.73" y="240.63" width="8.89" height="7.53"/><rect class="cls-1" x="750.15" y="227.78" width="23.72" height="21.09"/><rect class="cls-5" x="719.76" y="227.03" width="20.75" height="48.21"/><polygon class="cls-1" points="696.04 234.56 696.04 227.03 687.15 227.03 687.15 234.56 695.3 234.56 696.04 234.56"/><polygon class="cls-1" points="695.3 240.59 687.15 240.59 687.15 248.12 696.04 248.12 696.04 240.59 695.3 240.59"/><rect class="cls-1" x="701.97" y="227.03" width="8.89" height="7.53"/><rect class="cls-1" x="701.97" y="240.59" width="8.89" height="7.53"/><polygon class="cls-1" points="821.31 235.32 821.31 227.78 812.41 227.78 812.41 235.32 820.57 235.32 821.31 235.32"/><polygon class="cls-1" points="820.57 241.34 812.41 241.34 812.41 248.88 821.31 248.88 821.31 241.34 820.57 241.34"/><rect class="cls-1" x="827.24" y="227.78" width="8.89" height="7.53"/><rect class="cls-1" x="827.24" y="241.34" width="8.89" height="7.53"/><rect class="cls-1" x="660.73" y="230.5" width="1.12" height="44.78"/><path class="cls-2" d="M672.14,236.2c.07,15.66-10.77,28.41-10.77,28.41s-11-12.64-11-28.3,10.77-28.41,10.77-28.41S672.07,220.54,672.14,236.2Z"/><rect class="cls-1" x="457.7" y="229.36" width="1.12" height="44.78"/><path class="cls-2" d="M469.11,235.07c.07,15.66-10.77,28.41-10.77,28.41s-11-12.65-11-28.31,10.77-28.4,10.77-28.4S469,219.41,469.11,235.07Z"/><path class="cls-6" d="M469.11,235.07c.07,15.66-10.77,28.41-10.77,28.41s-11-12.65-11-28.31,10.77-28.4,10.77-28.4S469,219.41,469.11,235.07Z"/><rect class="cls-1" x="23.96" y="274.15" width="634.19" height="1.13"/><rect class="cls-1" x="443.2" y="229.36" width="1.12" height="44.78"/><path class="cls-2" d="M454.61,235.07c.07,15.66-10.77,28.41-10.77,28.41s-11-12.65-11-28.31,10.77-28.4,10.77-28.4S454.54,219.41,454.61,235.07Z"/><rect class="cls-1" x="239.4" y="274.15" width="634.19" height="1.13"/><path class="cls-7" d="M383,240.23s.57.66-.41,2-.18,4.08,1.68,4.15,2.76.87,2.31,1.91-1,3.52,1,3.14,2.66.45,2.3,1.08.91-1.26.91-1.26,1.13,1.71,2.51.52,1.94-12-.89-12.23A71.36,71.36,0,0,0,383,240.23Z"/><polygon class="cls-8" points="397.3 291.8 397.94 296.38 400.84 296.38 399.87 291.14 397.3 291.8"/><path class="cls-3" d="M401.16,293.6s3.86,3.6,2.9,3.92-4.51,4.25-5.15,4.58-6.76,2.29-5.79,0a8.54,8.54,0,0,1,3.21-3.6l.65-3.92Z"/><path class="cls-6" d="M401.16,293.6s3.86,3.6,2.9,3.92-4.51,4.25-5.15,4.58-6.76,2.29-5.79,0a8.54,8.54,0,0,1,3.21-3.6l.65-3.92Z"/><polygon class="cls-8" points="401.16 288.37 401.81 292.94 404.7 292.94 403.74 287.71 401.16 288.37"/><path class="cls-8" d="M389.06,276.21,393.28,262s-7.08-6.54-2.26-8.51,6.12,7.85,6.12,7.85l-1.61,17h-6.44Z"/><path class="cls-2" d="M398.91,265.8s-8.32,10.84-7.06,12.45,3.52,11.42,3.52,11.42-.32,3.93,1,3.93,4.51-.66,4.51-1.64-2.9-13.41-2.9-13.41l8.37-11.12Z"/><path class="cls-2" d="M399.55,266.45l8.37-4.58s5.79,2.95,4.18,5.56-9,9.49-9,9.49S405.34,288,405,288.37s-3.86,1.63-4.82,1.3-6.12-13.08-4.83-13.73,5.47-7.53,5.47-7.53Z"/><path class="cls-7" d="M376.7,391.58s5.8,3.6,6.44,3.6,9.33,2.29,5.47,3.93-18.66-.66-18.34-1.64,0-6.87.64-6.87S376.7,391.58,376.7,391.58Z"/><path class="cls-7" d="M383.14,391.06s5.79,3.6,6.44,3.6,9.33,2.29,5.47,3.92-18.67-.65-18.35-1.63,0-6.87.65-6.87S383.14,391.06,383.14,391.06Z"/><path class="cls-9" d="M376.47,322.86s1.52,8.87,3.13,12.47-.32,20.6-1.29,23.22-10.29,33.69-7.4,34a71.57,71.57,0,0,0,8.69,0l9.33-29.76-1.61-39.9Z"/><path class="cls-6" d="M376.47,322.86s1.52,8.87,3.13,12.47-.32,20.6-1.29,23.22-10.29,33.69-7.4,34a71.57,71.57,0,0,0,8.69,0l9.33-29.76-1.61-39.9Z"/><path class="cls-9" d="M379,322.05s1.28,8.83,4.18,10.79,1.93,3.93,1.93,3.93l-1.29,17.33s-12.55,31.4-8.68,35.33,7.4,2.28,9,2,4.5-7.2,2.89-9.16,3.22-13.74,4.51-15.7,0-4.58,1.61-5.23,5.15-4.91,5.15-7.85,4.5-34.34,1.6-36.3-21.46,4.05-21.46,4.05Z"/><ellipse class="cls-8" cx="372.84" cy="269.07" rx="7.08" ry="7.2"/><ellipse class="cls-8" cx="388.93" cy="242.9" rx="5.79" ry="5.89"/><path class="cls-8" d="M377.67,269.07s3.86,7.19,5.79,7.19-7.72,7.53-7.72,7.53-3.22-9.49-3.86-9.82S377.67,269.07,377.67,269.07Z"/><path class="cls-10" d="M379,275.61s-8.37,2.94-8,3.92-2.25,3.28-2.25,4.26-.64,9.81,3.22,17,10,12.43,7.08,15.7-7.4,8.83-2.58,8.83,12.55-7.19,19.63-4.58,5.47-7.19,5.47-7.19,1-7.52-1-9.81-8.69-18.65-8.69-20.61-6.44-9.48-8.05-9.48S379,275.61,379,275.61Z"/><path class="cls-8" d="M390.54,246.5a57,57,0,0,1,2.76,6c.14.9,4.64-6,4.64-6l-5.15-3.6Z"/><path class="cls-3" d="M391.51,250.43l5.47-5.89,6.43,2.94s6,13.41,6.38,14.39-9.59,5.56-10.56,5.56-7.72-10.14-7.72-10.14S389.9,252.39,391.51,250.43Z"/><polygon class="cls-8" points="388.93 258.28 388.93 264.16 392.8 264.16 391.52 258.28 388.93 258.28"/><path class="cls-8" d="M391.14,262.69a2.4,2.4,0,0,0-2.27,1.55c-.25.69-.17,1.42,1,1.72,2.57.66,2.89,0,2.89,0s4.47-.65,3.53-2-3.53-1.31-3.53-1.31Z"/><path class="cls-3" d="M405,291s3.86,3.6,2.9,3.93-4.51,4.25-5.15,4.58-6.76,2.28-5.79,0a8.56,8.56,0,0,1,3.22-3.6l.64-3.93Z"/><path class="cls-7" d="M370.32,263.53c.44-.26,1-.59,1-1.11a1,1,0,0,0-.64-.87,2.77,2.77,0,0,0-1.11-.15,1.57,1.57,0,0,0-.43,0c-.37.12-.58.49-.87.75a3.56,3.56,0,0,1-1.53.63,9.67,9.67,0,0,0-2.57,1.08,1.23,1.23,0,0,0-.41.34,1.67,1.67,0,0,0-.17.85,8.5,8.5,0,0,1-1.21,3.07,3.41,3.41,0,0,0-.24,3.18,10,10,0,0,1,.64.92c.4.86-.1,1.92.19,2.83a2.42,2.42,0,0,0,.62.93,4.84,4.84,0,0,0,2,1.25c.74.23,1.64.38,1.93,1.1a5.26,5.26,0,0,0,.27,1,1.49,1.49,0,0,0,1.06.54,4.51,4.51,0,0,0,1.37.1,1.69,1.69,0,0,0,1.18-.64,3.47,3.47,0,0,1,.48-.72c.46-.39,1.17-.08,1.77-.19a1.3,1.3,0,0,0,1-1,1.78,1.78,0,0,1,.2-.74c.37-.48,1.35-.14,1.6-.7.16-.36-.18-.75-.5-1a15.53,15.53,0,0,1-1.59-1.1,1.9,1.9,0,0,1-.67-1.72c.22-1,1.44-1.47,1.48-2.45a1.75,1.75,0,0,0-.81-1.38,12.7,12.7,0,0,1-1.35-1c-.29-.28-.51-.64-.82-.89a3.69,3.69,0,0,0-2.06-.59c-.39-.05-1.94-.23-1.88-.83S369.93,263.76,370.32,263.53Z"/><path class="cls-3" d="M391.51,250.1S388,251.41,388,253s-1.61,6.87,0,6.87a19.41,19.41,0,0,0,4.82-1.25Z"/><path class="cls-8" d="M390.54,273.65s9.33-3.27,9.66-3.27,4.82-2.62,4.5-3.6l-1.29-8.18s-5.14-10.79-1.61-10.79,5.48,8.5,5.48,8.5,7.72,14.72,3.54,18-21.57,9.16-22.53,8.18S390.54,273.65,390.54,273.65Z"/><path class="cls-8" d="M399.55,252.39l2.17,2.13-2.81,2.77s-3.86-1.63-3.54-.65,2.25,3.93,3.54,3.93,8-4.26,8-5.56-4.15-5.89-5.12-6.22S399.55,252.39,399.55,252.39Z"/><path class="cls-3" d="M395.47,250.11s4.73,4.24,5.37,4.24,1.81-6.37,1.81-6.37-3.81-2.53-5.22-1.84S395.47,250.11,395.47,250.11Z"/><path class="cls-10" d="M379,277.57s0-4.58,9.65-4.58h4.18l-1.93,10.8-6.43,2Z"/><path class="cls-7" d="M400.05,240.52a26.9,26.9,0,0,1-2.84-.18c-.73-1.81-1.67-3.33-2.69-3.9a10,10,0,0,0-2.71-1.51c-2.14-.92-5.71-.35-5.92.71-4.22,2-3.15,5.64-3.15,5.64.65,1.41,2.12.79,3.37.15a2.49,2.49,0,0,0,2.15,1.93c2.06.08,3.06.95,2.56,2.11s-1.09,3.9,1.15,3.48,3,.49,2.56,1.19,1-1.39,1-1.39,1.25,1.9,2.78.57a1.09,1.09,0,0,0,.32-.56,2.31,2.31,0,0,0,1.6.29c1.84-.84.7-2.8.7-2.8s2.46-.38,1.66-.32-1.29-1,.05-2.85S401.28,240.56,400.05,240.52Z"/><polygon class="cls-2" points="386.68 238.74 387.6 239.05 386.68 241.84 385.76 241.53 386.68 238.74"/><rect class="cls-1" x="295.73" y="398.87" width="160.08" height="1.13"/><rect class="cls-1" x="639.88" y="345.58" width="160.08" height="1.13"/><path class="cls-11" d="M758,243.76l9-1.78s2.2-7.59,4.83-6.69-1.75,8.47-1.75,8.47l-12.51,5.8Z"/><path class="cls-11" d="M703.34,251.34l-4,5.13s-5.71-.22-3.95,2.9,5.7,1.34,5.92.67,6.58-6.47,6.58-6.47Z"/><path class="cls-2" d="M719.46,245.43l3.29-1.78s14-1.12,19.31,2.45-22.16,4-22.16,4Z"/><path class="cls-1" d="M725.72,242.2s-1.76-4.24.65-4.68a10.46,10.46,0,0,1,4.17,0l-2.63,2.23Z"/><path class="cls-6" d="M725.72,242.2s-1.76-4.24.65-4.68a10.46,10.46,0,0,1,4.17,0l-2.63,2.23Z"/><path class="cls-7" d="M713.65,267.84l-6.36-.44,1.09,2s-8.77,2.68-5.92,10.26a98,98,0,0,0,7.24,14.72l2.85,5.57s5.93.9,6.15-.89,0-2.67-1.1-3.57a5.46,5.46,0,0,1-1.76-3.56c0-.9.22-1.79-.44-2.23s-.87-1.12-.87-2.46-2.42-6.24-2.42-6.24,7.68-.22,10.1,1.78,10.31,9.59,10.31,9.59a7,7,0,0,1,1.09,1.56c.44.89.44,1.34,1.32,1.79s.22,2.23,0,2.45-2.41,9.14-2.41,9.14-2.42,4.24.22,4.46,5,.45,5.26,0a12.8,12.8,0,0,1,.88-1.78c.66-1.12,0-3.57,0-3.57s6.36-8.25,4.39-13.38-6.14-16.72-6.14-16.72l-6.37-2.68-11.63-4.24Z"/><path class="cls-7" d="M713.21,298.84s-1.32,5.13-1.76,5.35-5.26,4.46-2,5.13,5.7.45,6.36-.22.44-1.34,1.54-1.56,3.07-.9,2.85-2.46-1.32-5.8-2-6.24S713.21,298.84,713.21,298.84Z"/><path class="cls-7" d="M732.3,310.21a3.84,3.84,0,0,0-.88,4.46c1.1,2.9,2.63,6,2.63,6s1.76,5.58,4.61,4.69a3.16,3.16,0,0,0,2-2.4,5.77,5.77,0,0,0-.8-4.66l-1.66-2.53-1.75-4.69Z"/><path class="cls-11" d="M726.81,244.65s-2.63-.22-3.07.45-2.41,9.59,0,10.48,9.66,2.45,10.75,1.34S736,246,736,246Z"/><path class="cls-6" d="M726.81,244.65s-2.63-.22-3.07.45-2.41,9.59,0,10.48,9.66,2.45,10.75,1.34S736,246,736,246Z"/><path class="cls-3" d="M722.86,252s3.08,3.12,5,2.68,6.58-2.46,7-3.35,5.93-1.11,5.93-1.11L734.93,267,739.1,281s2.41-2.9-4.17-3.12-15.36-3.57-16.89-8c0,0-9.66-1.34-10.1-1.56s1.1-1.56,1.1-1.56l6.36-1.79,4.61-6Z"/><path class="cls-2" d="M724.84,245.1s1.1-1.56,0-1.56a40.33,40.33,0,0,0-5.27.22c-1.09.22-5.26-.89-5.7.45s-.44,9.58.44,10.25,1.31.67.22,2-3.73,5.8-3.08,7.36-7,2-5.92,3.79a3.61,3.61,0,0,0,2.85,1.78s.44-3.56,3.07-1.78,6.15,6.24,9,3.34a13.16,13.16,0,0,0,4.17-9.36,32.07,32.07,0,0,0-.44-8.47C723.74,250.9,724.84,245.1,724.84,245.1Z"/><path class="cls-2" d="M736.25,249.33s1.75,1.57,0,5.36-6.37,12.71-2.64,18.5,5.27,7.36,4.39,8.48a4.31,4.31,0,0,0-.87,2.45l2.41-.89a27.35,27.35,0,0,1,1.32-5.35c.87-2.23-1.76-8.92-1.76-8.92l.88-8.7s3.51-5.57,3.95-5.8-.88-9.81-.88-9.81-2.19-.67-3.29,0S736.25,249.33,736.25,249.33Z"/><path class="cls-2" d="M715.18,244.43h-1.31l-9,4.68s-.66-2.9-1.09-2.23-.22,2.45-1.32,2.9-1.76,1.12,0,2,2,.22,2,1.78,1.32,1.78,2.42,1.34,1.31-.67,2.41-.22.44,1.11,2,.44,5.48-.44,5.48-.44Z"/><path class="cls-2" d="M741.51,245.1l1.54-.45s4.61.45,5.7.45,2.2-.23,2.86-.23,3.95-.44,4.38-.89,2.42-1.56,2.64-.89,2.63,4.91.44,6.91-2.64,1.12-4,2-11.85,2.68-12.07,2.45S741.51,245.1,741.51,245.1Z"/><ellipse class="cls-11" cx="732.52" cy="246.88" rx="6.58" ry="6.69"/><path class="cls-7" d="M727.67,247.15a1.11,1.11,0,0,1,.14.47,1.73,1.73,0,0,0,1.65,1.35,1.06,1.06,0,0,0,.78,1.25l.11,0a5.69,5.69,0,0,0,1-2,1.73,1.73,0,0,1,.33-.76,1.47,1.47,0,0,1,.94-.36,49,49,0,0,1,5.28-.4,1.19,1.19,0,0,0,.69-.15c.5-.32.33-1.1,0-1.61a5,5,0,0,0-2.66-2.11,12.57,12.57,0,0,0-2.44-.41,30.7,30.7,0,0,0-3.31-.35A5.39,5.39,0,0,0,727,243c-.66.47-1.74,1.8-1.21,2.63.09.14.35.2.47.34s.15.47.33.63S727.44,246.8,727.67,247.15Z"/><path class="cls-1" d="M732.52,235.73s-7.46,2.68-6.8,6.47,2.63,8.25,6.8,8,6.36-4.84,6.36-4.84l-1.1-6.31S733.61,235.73,732.52,235.73Z"/><path class="cls-7" d="M731.58,249.11s2.93-3.23,4.41-1.36A29.85,29.85,0,0,0,731.58,249.11Z"/><path class="cls-7" d="M737.11,331.8c-3.93,0-8.8-1.32-13.54-6.11C712,314,700.93,312.8,700.82,312.79l0-.45c.11,0,11.29,1.2,23,13,6,6.08,12.24,6.45,16.39,5.7a20.29,20.29,0,0,0,7.68-3.15l.26.36a20.66,20.66,0,0,1-7.84,3.22A17.81,17.81,0,0,1,737.11,331.8Z"/><ellipse class="cls-7" cx="706.74" cy="319.47" rx="2.63" ry="2.68"/><ellipse class="cls-7" cx="725.39" cy="331.95" rx="2.63" ry="2.68"/><rect class="cls-12" width="900" height="400"/></g></g></svg>